<svg width="182" height="151" viewBox="0 0 182 151" fill="none" xmlns="http://www.w3.org/2000/svg">
<line x1="34.5" y1="5.5" x2="34.5" y2="143.5" stroke="black" stroke-width="5" stroke-linecap="round"/>
<path d="M102 40.5C102 61.3265 80.1083 79 52 79C23.8917 79 2 61.3265 2 40.5C2 19.6735 23.8917 2 52 2C80.1083 2 102 19.6735 102 40.5Z" stroke="black" stroke-width="4"/>
<path d="M38 81L156 146" stroke="black" stroke-width="4" stroke-linecap="round"/>
<path d="M109.547 119.866C106.489 118.296 104.514 116.018 103.623 113.031C102.74 110.031 103.161 106.849 104.888 103.485L105.252 102.776C106.4 100.538 107.848 98.761 109.595 97.4447C111.363 96.1216 113.265 95.3591 115.301 95.1569C117.357 94.9481 119.282 95.3038 121.076 96.2242C124.009 97.7297 125.792 99.8659 126.427 102.633C127.062 105.4 126.455 108.584 124.607 112.184L123.783 113.789L108.499 105.945C107.413 108.197 107.135 110.329 107.666 112.34C108.218 114.345 109.453 115.839 111.372 116.824C112.734 117.523 114.03 117.837 115.261 117.767C116.492 117.696 117.697 117.383 118.877 116.83L120.291 119.874C116.909 121.809 113.328 121.806 109.547 119.866ZM119.449 99.3936C117.892 98.5945 116.293 98.4938 114.651 99.0914C113.017 99.6751 111.55 100.924 110.251 102.839L121.552 108.64L121.702 108.348C122.597 106.331 122.846 104.545 122.451 102.989C122.062 101.42 121.061 100.221 119.449 99.3936Z" fill="black"/>
<path d="M157.979 132.867C156.146 135.775 153.703 137.541 150.65 138.165C147.583 138.781 144.45 138.081 141.252 136.064L140.578 135.639C138.45 134.298 136.807 132.699 135.65 130.842C134.488 128.965 133.896 127.003 133.874 124.957C133.848 122.89 134.372 121.004 135.447 119.299C137.205 116.51 139.49 114.922 142.302 114.534C145.114 114.145 148.232 115.03 151.656 117.189L153.182 118.151L144.02 132.684C146.168 133.964 148.268 134.429 150.318 134.077C152.363 133.704 153.961 132.606 155.11 130.782C155.927 129.486 156.354 128.223 156.392 126.991C156.43 125.758 156.226 124.53 155.778 123.306L158.935 122.166C160.564 125.705 160.246 129.272 157.979 132.867ZM138.46 121.199C137.527 122.679 137.286 124.264 137.736 125.951C138.173 127.631 139.289 129.202 141.082 130.665L147.856 119.919L147.579 119.744C145.648 118.675 143.891 118.269 142.307 118.526C140.709 118.775 139.427 119.666 138.46 121.199Z" fill="black"/>
</svg>
