<svg width="710" height="189" viewBox="0 0 710 189" fill="none" xmlns="http://www.w3.org/2000/svg">
<g clip-path="url(#clip0)">
<path d="M119.625 80.0625C108.614 80.0625 99.6875 89.4508 99.6875 101.031C99.6875 112.612 108.614 122 119.625 122C130.636 122 139.563 112.612 139.563 101.031C139.563 89.4508 130.636 80.0625 119.625 80.0625ZM119.625 106.75C116.628 106.75 114.188 104.184 114.188 101.031C114.188 97.8788 116.628 95.3125 119.625 95.3125C122.622 95.3125 125.063 97.8788 125.063 101.031C125.063 104.184 122.622 106.75 119.625 106.75ZM137.75 38.125H123.25V28.5461C123.25 25.1815 124.315 21.9314 126.229 19.2912C127.231 17.9092 127.034 15.941 125.93 14.6471L121.03 8.88787C119.521 7.11268 116.879 7.23897 115.434 9.07373C111.147 14.5113 108.75 21.4 108.75 28.5461V38.125H85.5659L72.858 6.9435C72.0232 4.88196 70.6301 3.12435 68.8522 1.88965C67.0743 0.654958 64.9903 -0.0022268 62.8598 -1.73353e-05H32.625C26.6279 -1.73353e-05 21.75 5.13018 21.75 11.4375V46.3505C19.7948 44.7468 17.0013 44.8112 15.2046 46.7007L8.15625 54.1137C6.21008 56.1605 6.21008 59.4797 8.15625 61.5266L9.30266 62.7323C8.17211 64.9388 7.27266 67.2167 6.6043 69.5757H4.98438C2.23164 69.5757 0 71.9228 0 74.8179V85.3023C0 88.1974 2.23164 90.5445 4.98438 90.5445H6.60203C7.27266 92.9058 8.16984 95.1814 9.30039 97.3903L8.15399 98.596C6.20781 100.643 6.20781 103.962 8.15399 106.009L15.2023 113.422C17.1485 115.469 20.3045 115.469 22.2507 113.422L23.3971 112.216C25.4951 113.405 27.661 114.351 29.904 115.054V116.758C29.904 119.653 32.1356 122 34.8884 122H44.8571C47.6098 122 49.8415 119.653 49.8415 116.758V115.056C52.0845 114.354 54.2504 113.408 56.3484 112.219L57.4948 113.424C59.4409 115.471 62.597 115.471 64.5431 113.424L71.5915 106.011C73.5377 103.964 73.5377 100.645 71.5915 98.5984L70.4451 97.3927C71.5756 95.1862 72.4751 92.9082 73.1434 90.5492H74.7656C77.5184 90.5492 79.75 88.2022 79.75 85.3071V83.8774H97.9974C102.961 76.9696 110.757 72.4399 119.625 72.4399C123.848 72.4399 127.797 73.5383 131.361 75.3469L142.875 63.2374C144.234 61.8078 144.998 59.8681 144.998 57.8451V45.75C145 41.5396 141.753 38.125 137.75 38.125ZM39.875 99.125C29.8655 99.125 21.75 90.5898 21.75 80.0625C21.75 69.5352 29.8655 61 39.875 61C49.8845 61 58 69.5352 58 80.0625C58 90.5898 49.8845 99.125 39.875 99.125ZM44.8594 38.125H36.25V15.25H60.4673L69.7903 38.125H44.8594Z" fill="black"/>
</g>
<path d="M416.626 39.0259L377.5 60.1205V43.8507C377.5 39.3433 371.613 36.6071 367.126 39.0259L328 60.1205V13.3438C328 10.1853 324.978 7.625 321.25 7.625H289.75C286.022 7.625 283 10.1853 283 13.3438V108.656C283 111.815 286.022 114.375 289.75 114.375H420.25C423.978 114.375 427 111.815 427 108.656V43.8507C427 39.3431 421.113 36.6071 416.626 39.0259Z" fill="black"/>
<path d="M682.812 11.4375V110.562C682.812 116.879 676.726 122 669.219 122H605.781C598.274 122 592.188 116.879 592.188 110.562V11.4375C592.188 5.12066 598.274 0 605.781 0H669.219C676.726 0 682.812 5.12066 682.812 11.4375ZM710 25.2578V28.1172C710 28.4964 709.821 28.86 709.502 29.1281C709.184 29.3962 708.751 29.5469 708.301 29.5469H703.203V30.9766C703.203 31.3557 703.024 31.7194 702.705 31.9875C702.387 32.2556 701.955 32.4062 701.504 32.4062H689.609V20.9688H701.504C701.955 20.9688 702.387 21.1194 702.705 21.3875C703.024 21.6556 703.203 22.0193 703.203 22.3984V23.8281H708.301C708.751 23.8281 709.184 23.9788 709.502 24.2469C709.821 24.515 710 24.8786 710 25.2578V25.2578ZM710 48.1328V50.9922C710 51.3714 709.821 51.735 709.502 52.0031C709.184 52.2712 708.751 52.4219 708.301 52.4219H703.203V53.8516C703.203 54.2307 703.024 54.5944 702.705 54.8625C702.387 55.1306 701.955 55.2812 701.504 55.2812H689.609V43.8438H701.504C701.955 43.8438 702.387 43.9944 702.705 44.2625C703.024 44.5306 703.203 44.8943 703.203 45.2734V46.7031H708.301C708.751 46.7031 709.184 46.8538 709.502 47.1219C709.821 47.39 710 47.7536 710 48.1328ZM710 71.0078V73.8672C710 74.2464 709.821 74.61 709.502 74.8781C709.184 75.1462 708.751 75.2969 708.301 75.2969H703.203V76.7266C703.203 77.1057 703.024 77.4694 702.705 77.7375C702.387 78.0056 701.955 78.1562 701.504 78.1562H689.609V66.7188H701.504C701.955 66.7188 702.387 66.8694 702.705 67.1375C703.024 67.4056 703.203 67.7693 703.203 68.1484V69.5781H708.301C708.751 69.5781 709.184 69.7288 709.502 69.9969C709.821 70.265 710 70.6286 710 71.0078ZM710 93.8828V96.7422C710 97.1214 709.821 97.485 709.502 97.7531C709.184 98.0212 708.751 98.1719 708.301 98.1719H703.203V99.6016C703.203 99.9807 703.024 100.344 702.705 100.613C702.387 100.881 701.955 101.031 701.504 101.031H689.609V89.5938H701.504C701.955 89.5938 702.387 89.7444 702.705 90.0125C703.024 90.2806 703.203 90.6443 703.203 91.0234V92.4531H708.301C708.751 92.4531 709.184 92.6038 709.502 92.8719C709.821 93.14 710 93.5036 710 93.8828V93.8828ZM573.496 89.5938H585.391V101.031H573.496C573.045 101.031 572.613 100.881 572.295 100.613C571.976 100.344 571.797 99.9807 571.797 99.6016V98.1719H566.699C566.249 98.1719 565.816 98.0212 565.498 97.7531C565.179 97.485 565 97.1214 565 96.7422V93.8828C565 93.5036 565.179 93.14 565.498 92.8719C565.816 92.6038 566.249 92.4531 566.699 92.4531H571.797V91.0234C571.797 90.6443 571.976 90.2806 572.295 90.0125C572.613 89.7444 573.045 89.5938 573.496 89.5938V89.5938ZM573.496 66.7188H585.391V78.1562H573.496C573.045 78.1562 572.613 78.0056 572.295 77.7375C571.976 77.4694 571.797 77.1057 571.797 76.7266V75.2969H566.699C566.249 75.2969 565.816 75.1462 565.498 74.8781C565.179 74.61 565 74.2464 565 73.8672V71.0078C565 70.6286 565.179 70.265 565.498 69.9969C565.816 69.7288 566.249 69.5781 566.699 69.5781H571.797V68.1484C571.797 67.7693 571.976 67.4056 572.295 67.1375C572.613 66.8694 573.045 66.7188 573.496 66.7188V66.7188ZM573.496 43.8438H585.391V55.2812H573.496C573.045 55.2812 572.613 55.1306 572.295 54.8625C571.976 54.5944 571.797 54.2307 571.797 53.8516V52.4219H566.699C566.249 52.4219 565.816 52.2712 565.498 52.0031C565.179 51.735 565 51.3714 565 50.9922V48.1328C565 47.7536 565.179 47.39 565.498 47.1219C565.816 46.8538 566.249 46.7031 566.699 46.7031H571.797V45.2734C571.797 44.8943 571.976 44.5306 572.295 44.2625C572.613 43.9944 573.045 43.8438 573.496 43.8438V43.8438ZM573.496 20.9688H585.391V32.4062H573.496C573.045 32.4062 572.613 32.2556 572.295 31.9875C571.976 31.7194 571.797 31.3557 571.797 30.9766V29.5469H566.699C566.249 29.5469 565.816 29.3962 565.498 29.1281C565.179 28.86 565 28.4964 565 28.1172V25.2578C565 24.8786 565.179 24.515 565.498 24.2469C565.816 23.9788 566.249 23.8281 566.699 23.8281H571.797V22.3984C571.797 22.0193 571.976 21.6556 572.295 21.3875C572.613 21.1194 573.045 20.9688 573.496 20.9688V20.9688Z" fill="black"/>
<path d="M33.056 161.352H29.552V159.792H33.056V161.352ZM33.056 164.088H29.552V162.504H33.056V164.088ZM19.256 162.504H22.568V164.088H19.256V162.504ZM19.256 159.792H22.568V161.352H19.256V159.792ZM27.8 162.504V164.088H24.296V162.504H27.8ZM27.8 159.792V161.352H24.296V159.792H27.8ZM34.784 158.592H29.552V156.912H27.8V158.592H24.296V156.912H22.568V158.592H17.6V165.312H34.784V158.592ZM33.92 172.968C32.768 173.64 30.896 174.504 29.504 175.032C28.592 174.456 27.848 173.76 27.272 172.968H33.92ZM22.904 176.544V172.968H25.52C26.144 174.12 26.984 175.104 28.016 175.92L22.904 176.544ZM34.136 172.968H36.632V171.6H18.968C19.04 170.88 19.064 170.16 19.064 169.536V167.832H36.08V166.488H17.36V169.512C17.36 171.96 17.096 175.416 15.056 177.96C15.488 178.152 16.232 178.584 16.568 178.872C17.864 177.192 18.512 175.032 18.824 172.968H21.176V176.76C20.408 176.856 19.712 176.928 19.088 177L19.304 178.536C21.656 178.224 24.92 177.792 28.064 177.384L28.016 175.92C29.96 177.456 32.576 178.416 35.888 178.824C36.104 178.344 36.56 177.624 36.944 177.288C34.568 177.072 32.504 176.568 30.824 175.776C32.24 175.296 33.896 174.648 35.288 173.952L34.136 172.968ZM34.016 170.328V169.104H20.432V170.328H34.016ZM53.576 162.696C53.24 163.512 52.76 164.496 52.352 165.192L52.592 165.264H46.952L47.72 165.096C47.528 164.448 47.024 163.44 46.52 162.696H53.576ZM60.464 173.136V171.624H50.84V169.848H58.352V168.48H50.84V166.728H59.528V165.264H54.08C54.56 164.544 55.088 163.608 55.568 162.696H60.368V161.16H56.648C57.32 160.248 58.088 158.928 58.76 157.704L56.936 157.224C56.504 158.304 55.736 159.864 55.112 160.872L56 161.16H53.096V156.912H51.416V161.16H48.56V156.912H46.904V161.16H43.952L45.176 160.704C44.816 159.744 43.952 158.256 43.136 157.176L41.624 157.68C42.344 158.76 43.184 160.2 43.52 161.16H39.704V162.696H45.56L44.72 162.864C45.2 163.584 45.68 164.544 45.896 165.264H40.664V166.728H49.088V168.48H41.864V169.848H49.088V171.624H39.608V173.136H47.456C45.296 174.816 41.96 176.256 38.984 176.928C39.368 177.312 39.896 177.984 40.136 178.44C43.28 177.528 46.784 175.8 49.088 173.712V178.824H50.84V173.592C53.144 175.8 56.648 177.6 59.864 178.512C60.104 178.008 60.656 177.312 61.064 176.928C57.992 176.28 54.68 174.864 52.496 173.136H60.464ZM69.032 160.104V165.432H65.552V160.104H69.032ZM65.552 172.536V166.992H69.032V172.536H65.552ZM70.712 158.496H63.92V176.088H65.552V174.144H70.712V158.496ZM72.68 171.936C73.904 173.208 75.176 174.984 75.728 176.16L77.24 175.2C76.688 174.024 75.344 172.32 74.12 171.12L72.68 171.936ZM85.064 165.984V164.4H78.872V161.352H84.032V159.768H78.872V156.912H77.12V159.768H72.128V161.352H77.12V164.4H71.096V165.984H80.288V168.696H71.216V170.28H80.288V176.688C80.288 177.048 80.168 177.144 79.76 177.168C79.376 177.192 78.056 177.192 76.568 177.144C76.832 177.6 77.072 178.32 77.144 178.8C79.088 178.8 80.288 178.776 81.032 178.512C81.752 178.248 82.016 177.72 82.016 176.712V170.28H84.8V168.696H82.016V165.984H85.064ZM108.344 161.28C107.528 160.2 105.824 158.568 104.384 157.44L103.088 158.304C104.504 159.48 106.184 161.16 106.952 162.24L108.344 161.28ZM93.536 157.2C91.976 160.968 89.336 164.616 86.6 166.944C86.912 167.352 87.44 168.24 87.632 168.672C88.736 167.664 89.816 166.488 90.848 165.144V178.8H92.648V162.576C93.632 161.016 94.52 159.408 95.216 157.728L93.536 157.2ZM108.8 164.928L108.56 163.248L101.384 164.16C101.144 162.048 101 159.72 100.928 157.296H99.152C99.248 159.792 99.416 162.168 99.608 164.4L93.8 165.12L94.04 166.8L99.8 166.08C100.712 173.568 102.632 178.536 106.568 178.824C107.816 178.896 108.776 177.648 109.304 173.544C108.944 173.376 108.176 172.944 107.816 172.608C107.576 175.368 107.192 176.784 106.496 176.736C103.928 176.496 102.368 172.2 101.552 165.84L108.8 164.928Z" fill="black"/>
<path d="M309.912 175.224V161.448H318.528V159.624H299.568V161.448H307.968V175.224H298.32V177H319.728V175.224H309.912ZM336.576 162.696C336.24 163.512 335.76 164.496 335.352 165.192L335.592 165.264H329.952L330.72 165.096C330.528 164.448 330.024 163.44 329.52 162.696H336.576ZM343.464 173.136V171.624H333.84V169.848H341.352V168.48H333.84V166.728H342.528V165.264H337.08C337.56 164.544 338.088 163.608 338.568 162.696H343.368V161.16H339.648C340.32 160.248 341.088 158.928 341.76 157.704L339.936 157.224C339.504 158.304 338.736 159.864 338.112 160.872L339 161.16H336.096V156.912H334.416V161.16H331.56V156.912H329.904V161.16H326.952L328.176 160.704C327.816 159.744 326.952 158.256 326.136 157.176L324.624 157.68C325.344 158.76 326.184 160.2 326.52 161.16H322.704V162.696H328.56L327.72 162.864C328.2 163.584 328.68 164.544 328.896 165.264H323.664V166.728H332.088V168.48H324.864V169.848H332.088V171.624H322.608V173.136H330.456C328.296 174.816 324.96 176.256 321.984 176.928C322.368 177.312 322.896 177.984 323.136 178.44C326.28 177.528 329.784 175.8 332.088 173.712V178.824H333.84V173.592C336.144 175.8 339.648 177.6 342.864 178.512C343.104 178.008 343.656 177.312 344.064 176.928C340.992 176.28 337.68 174.864 335.496 173.136H343.464ZM352.032 160.104V165.432H348.552V160.104H352.032ZM348.552 172.536V166.992H352.032V172.536H348.552ZM353.712 158.496H346.92V176.088H348.552V174.144H353.712V158.496ZM355.68 171.936C356.904 173.208 358.176 174.984 358.728 176.16L360.24 175.2C359.688 174.024 358.344 172.32 357.12 171.12L355.68 171.936ZM368.064 165.984V164.4H361.872V161.352H367.032V159.768H361.872V156.912H360.12V159.768H355.128V161.352H360.12V164.4H354.096V165.984H363.288V168.696H354.216V170.28H363.288V176.688C363.288 177.048 363.168 177.144 362.76 177.168C362.376 177.192 361.056 177.192 359.568 177.144C359.832 177.6 360.072 178.32 360.144 178.8C362.088 178.8 363.288 178.776 364.032 178.512C364.752 178.248 365.016 177.72 365.016 176.712V170.28H367.8V168.696H365.016V165.984H368.064ZM391.344 161.28C390.528 160.2 388.824 158.568 387.384 157.44L386.088 158.304C387.504 159.48 389.184 161.16 389.952 162.24L391.344 161.28ZM376.536 157.2C374.976 160.968 372.336 164.616 369.6 166.944C369.912 167.352 370.44 168.24 370.632 168.672C371.736 167.664 372.816 166.488 373.848 165.144V178.8H375.648V162.576C376.632 161.016 377.52 159.408 378.216 157.728L376.536 157.2ZM391.8 164.928L391.56 163.248L384.384 164.16C384.144 162.048 384 159.72 383.928 157.296H382.152C382.248 159.792 382.416 162.168 382.608 164.4L376.8 165.12L377.04 166.8L382.8 166.08C383.712 173.568 385.632 178.536 389.568 178.824C390.816 178.896 391.776 177.648 392.304 173.544C391.944 173.376 391.176 172.944 390.816 172.608C390.576 175.368 390.192 176.784 389.496 176.736C386.928 176.496 385.368 172.2 384.552 165.84L391.8 164.928Z" fill="black"/>
<path d="M597.112 161.856C596.32 160.848 594.64 159.48 593.2 158.568L592.072 159.6C593.488 160.584 595.144 162 595.888 163.008L597.112 161.856ZM596.536 168.168C595.648 167.136 593.776 165.72 592.24 164.784L591.136 165.84C592.648 166.8 594.496 168.288 595.36 169.344L596.536 168.168ZM590.224 169.872C589.72 169.224 587.656 166.584 586.912 165.744V165.312H590.44V163.632H586.912V159.624C588.064 159.36 589.168 159.024 590.056 158.664L588.976 157.248C587.176 158.04 584.032 158.736 581.344 159.168C581.536 159.552 581.776 160.176 581.872 160.56C582.928 160.416 584.056 160.224 585.16 160.008V163.632H581.128V165.312H584.92C583.984 168.072 582.304 171.144 580.792 172.848C581.08 173.256 581.512 173.976 581.68 174.456C582.928 172.968 584.176 170.592 585.16 168.192V178.8H586.912V167.688C587.728 168.912 588.736 170.472 589.144 171.264L590.224 169.872ZM603.064 172.032L602.8 170.4L599.992 170.832V156.912H598.24V171.12L590.128 172.416L590.416 174.12L598.24 172.824V178.8H599.992V172.536L603.064 172.032ZM612.736 167.4C611.872 167.664 610.96 167.928 610.096 168.168V163.416H612.736V161.736H610.096V156.936H608.344V161.736H605.272V163.416H608.344V168.648C607.072 169.008 605.92 169.296 604.96 169.512L605.464 171.264L608.344 170.424V176.688C608.344 177.024 608.2 177.144 607.864 177.144C607.576 177.168 606.544 177.168 605.392 177.144C605.632 177.624 605.896 178.32 605.944 178.776C607.6 178.8 608.608 178.752 609.208 178.464C609.832 178.176 610.096 177.696 610.096 176.688V169.896C611.032 169.608 612.016 169.32 612.976 169.032L612.736 167.4ZM623.44 167.568C622.576 169.752 621.232 171.6 619.576 173.088C618.064 171.552 616.864 169.656 616.048 167.568H623.44ZM624.568 165.84L624.28 165.912H620.464V162.336H626.2V160.68H620.464V156.912H618.712V160.68H613.096V162.336H618.712V165.912H613.576V167.568H614.368L614.296 167.592C615.232 170.16 616.552 172.368 618.232 174.168C616.288 175.584 614.056 176.592 611.728 177.216C612.064 177.6 612.496 178.344 612.688 178.824C615.136 178.056 617.464 176.952 619.504 175.392C621.28 176.952 623.416 178.104 625.912 178.872C626.176 178.392 626.68 177.696 627.064 177.336C624.664 176.688 622.6 175.656 620.872 174.24C623.032 172.248 624.736 169.632 625.744 166.344L624.568 165.84ZM635.032 160.104V165.432H631.552V160.104H635.032ZM631.552 172.536V166.992H635.032V172.536H631.552ZM636.712 158.496H629.92V176.088H631.552V174.144H636.712V158.496ZM638.68 171.936C639.904 173.208 641.176 174.984 641.728 176.16L643.24 175.2C642.688 174.024 641.344 172.32 640.12 171.12L638.68 171.936ZM651.064 165.984V164.4H644.872V161.352H650.032V159.768H644.872V156.912H643.12V159.768H638.128V161.352H643.12V164.4H637.096V165.984H646.288V168.696H637.216V170.28H646.288V176.688C646.288 177.048 646.168 177.144 645.76 177.168C645.376 177.192 644.056 177.192 642.568 177.144C642.832 177.6 643.072 178.32 643.144 178.8C645.088 178.8 646.288 178.776 647.032 178.512C647.752 178.248 648.016 177.72 648.016 176.712V170.28H650.8V168.696H648.016V165.984H651.064ZM674.344 161.28C673.528 160.2 671.824 158.568 670.384 157.44L669.088 158.304C670.504 159.48 672.184 161.16 672.952 162.24L674.344 161.28ZM659.536 157.2C657.976 160.968 655.336 164.616 652.6 166.944C652.912 167.352 653.44 168.24 653.632 168.672C654.736 167.664 655.816 166.488 656.848 165.144V178.8H658.648V162.576C659.632 161.016 660.52 159.408 661.216 157.728L659.536 157.2ZM674.8 164.928L674.56 163.248L667.384 164.16C667.144 162.048 667 159.72 666.928 157.296H665.152C665.248 159.792 665.416 162.168 665.608 164.4L659.8 165.12L660.04 166.8L665.8 166.08C666.712 173.568 668.632 178.536 672.568 178.824C673.816 178.896 674.776 177.648 675.304 173.544C674.944 173.376 674.176 172.944 673.816 172.608C673.576 175.368 673.192 176.784 672.496 176.736C669.928 176.496 668.368 172.2 667.552 165.84L674.8 164.928Z" fill="black"/>
<path d="M245.475 78.4749C246.842 77.108 246.842 74.892 245.475 73.5251L223.201 51.2513C221.834 49.8844 219.618 49.8844 218.251 51.2513C216.884 52.6181 216.884 54.8342 218.251 56.201L238.05 76L218.251 95.799C216.884 97.1658 216.884 99.3819 218.251 100.749C219.618 102.116 221.834 102.116 223.201 100.749L245.475 78.4749ZM184 79.5H243V72.5H184V79.5Z" fill="black"/>
<path d="M527.475 79.4749C528.842 78.108 528.842 75.892 527.475 74.5251L505.201 52.2513C503.834 50.8844 501.618 50.8844 500.251 52.2513C498.884 53.6181 498.884 55.8342 500.251 57.201L520.05 77L500.251 96.799C498.884 98.1658 498.884 100.382 500.251 101.749C501.618 103.116 503.834 103.116 505.201 101.749L527.475 79.4749ZM466 80.5H525V73.5H466V80.5Z" fill="black"/>
<defs>
<clipPath id="clip0">
<rect width="145" height="122" fill="white"/>
</clipPath>
</defs>
</svg>
