<svg width="100" height="100" viewBox="0 0 100 100" fill="none" xmlns="http://www.w3.org/2000/svg">
<g clip-path="url(#clip0)">
<path d="M89.721 24.9218C89.7847 26.0155 89.7847 27.1094 89.7847 28.2031C89.7847 61.5623 69.1627 100 31.4722 100C19.8604 100 9.07367 95.8593 0 88.672C1.64981 88.9063 3.23595 88.9843 4.94923 88.9843C14.5303 88.9843 23.3503 85 30.3935 78.2033C21.3833 77.9687 13.8325 70.7033 11.2309 60.703C12.5 60.9373 13.769 61.0937 15.1016 61.0937C16.9417 61.0937 18.7819 60.781 20.495 60.2343C11.1041 57.8903 4.06077 47.7343 4.06077 35.4687V35.1563C6.7891 37.0313 9.96197 38.2033 13.3247 38.3593C7.80433 33.828 4.1877 26.0936 4.1877 17.3436C4.1877 12.6562 5.20277 8.3593 6.97953 4.60927C17.0684 19.9217 32.2335 29.9216 49.2383 31.0155C48.9213 29.1405 48.731 27.1876 48.731 25.2344C48.731 11.328 57.868 0 69.226 0C75.127 0 80.4567 3.04687 84.2007 7.96873C88.8323 6.87503 93.274 4.76557 97.2083 1.87501C95.685 7.73453 92.4493 12.6564 88.198 15.7812C92.3223 15.2346 96.32 13.828 100 11.8751C97.2087 16.8749 93.7187 21.3278 89.721 24.9218Z" fill="#0E0E0E"/>
<path d="M89.721 24.9218C89.7847 26.0155 89.7847 27.1094 89.7847 28.2031C89.7847 61.5623 69.1627 100 31.4722 100C19.8604 100 9.07367 95.8593 0 88.672C1.64981 88.9063 3.23595 88.9843 4.94923 88.9843C14.5303 88.9843 23.3503 85 30.3935 78.2033C21.3833 77.9687 13.8325 70.7033 11.2309 60.703C12.5 60.9373 13.769 61.0937 15.1016 61.0937C16.9417 61.0937 18.7819 60.781 20.495 60.2343C11.1041 57.8903 4.06077 47.7343 4.06077 35.4687V35.1563C6.7891 37.0313 9.96197 38.2033 13.3247 38.3593C7.80433 33.828 4.1877 26.0936 4.1877 17.3436C4.1877 12.6562 5.20277 8.3593 6.97953 4.60927C17.0684 19.9217 32.2335 29.9216 49.2383 31.0155C48.9213 29.1405 48.731 27.1876 48.731 25.2344C48.731 11.328 57.868 0 69.226 0C75.127 0 80.4567 3.04687 84.2007 7.96873C88.8323 6.87503 93.274 4.76557 97.2083 1.87501C95.685 7.73453 92.4493 12.6564 88.198 15.7812C92.3223 15.2346 96.32 13.828 100 11.8751C97.2087 16.8749 93.7187 21.3278 89.721 24.9218Z" stroke="white"/>
</g>
<defs>
<clipPath id="clip0">
<rect width="100" height="100" fill="white"/>
</clipPath>
</defs>
</svg>
