<svg width="100" height="100" viewBox="0 0 100 100" fill="none" xmlns="http://www.w3.org/2000/svg">
<path d="M33.4476 77.6172C33.4476 78.0078 32.9839 78.3203 32.3992 78.3203C31.7339 78.3789 31.2702 78.0664 31.2702 77.6172C31.2702 77.2266 31.7339 76.9141 32.3186 76.9141C32.9234 76.8555 33.4476 77.168 33.4476 77.6172ZM27.1774 76.7383C27.0363 77.1289 27.4395 77.5781 28.0444 77.6953C28.5686 77.8906 29.1734 77.6953 29.2944 77.3047C29.4153 76.9141 29.0323 76.4648 28.4274 76.2891C27.9032 76.1523 27.3186 76.3477 27.1774 76.7383ZM36.0887 76.4062C35.504 76.543 35.1008 76.9141 35.1613 77.3633C35.2218 77.7539 35.746 78.0078 36.3508 77.8711C36.9355 77.7344 37.3387 77.3633 37.2782 76.9727C37.2177 76.6016 36.6734 76.3477 36.0887 76.4062ZM49.3548 1.5625C21.3911 1.5625 0 22.1289 0 49.2188C0 70.8789 14.0726 89.4141 34.1734 95.9375C36.754 96.3867 37.6613 94.8438 37.6613 93.5742C37.6613 92.3633 37.6008 85.6836 37.6008 81.582C37.6008 81.582 23.4879 84.5117 20.5242 75.7617C20.5242 75.7617 18.2258 70.0781 14.9194 68.6133C14.9194 68.6133 10.3024 65.5469 15.2419 65.6055C15.2419 65.6055 20.2621 65.9961 23.0242 70.6445C27.4395 78.1836 34.8387 76.0156 37.7218 74.7266C38.1855 71.6016 39.496 69.4336 40.9476 68.1445C29.6774 66.9336 18.3065 65.3516 18.3065 46.5625C18.3065 41.1914 19.8387 38.4961 23.0645 35.0586C22.5403 33.7891 20.8266 28.5547 23.5887 21.7969C27.8024 20.5273 37.5 27.0703 37.5 27.0703C41.5323 25.9766 45.8669 25.4102 50.1613 25.4102C54.4556 25.4102 58.7903 25.9766 62.8226 27.0703C62.8226 27.0703 72.5202 20.5078 76.7339 21.7969C79.496 28.5742 77.7823 33.7891 77.2581 35.0586C80.4839 38.5156 82.4597 41.2109 82.4597 46.5625C82.4597 65.4102 70.5847 66.9141 59.3145 68.1445C61.1694 69.6875 62.7419 72.6172 62.7419 77.207C62.7419 83.7891 62.6814 91.9336 62.6814 93.5352C62.6814 94.8047 63.6089 96.3477 66.1694 95.8984C86.3307 89.4141 100 70.8789 100 49.2188C100 22.1289 77.3186 1.5625 49.3548 1.5625ZM19.5968 68.9258C19.3347 69.1211 19.3952 69.5703 19.7379 69.9414C20.0605 70.2539 20.5242 70.3906 20.7863 70.1367C21.0484 69.9414 20.9879 69.4922 20.6452 69.1211C20.3226 68.8086 19.8589 68.6719 19.5968 68.9258ZM17.4194 67.3438C17.2782 67.5977 17.4798 67.9102 17.8831 68.1055C18.2056 68.3008 18.6089 68.2422 18.75 67.9688C18.8911 67.7148 18.6895 67.4023 18.2863 67.207C17.8831 67.0898 17.5605 67.1484 17.4194 67.3438ZM23.9516 74.2969C23.629 74.5508 23.75 75.1367 24.2137 75.5078C24.6774 75.957 25.2621 76.0156 25.5242 75.7031C25.7863 75.4492 25.6653 74.8633 25.2621 74.4922C24.8186 74.043 24.2137 73.9844 23.9516 74.2969ZM21.6532 71.4258C21.3306 71.6211 21.3306 72.1289 21.6532 72.5781C21.9758 73.0273 22.5202 73.2227 22.7823 73.0273C23.1048 72.7734 23.1048 72.2656 22.7823 71.8164C22.5 71.3672 21.9758 71.1719 21.6532 71.4258Z" fill="#0B9890"/>
</svg>
