<svg width="100" height="100" viewBox="0 0 100 100" fill="none" xmlns="http://www.w3.org/2000/svg">
<g clip-path="url(#clip0)">
<path d="M50.011 24.3613C35.8227 24.3613 24.3781 35.8083 24.3781 50C24.3781 64.1917 35.8227 75.6387 50.011 75.6387C64.1997 75.6387 75.6443 64.1917 75.6443 50C75.6443 35.8083 64.1997 24.3613 50.011 24.3613ZM50.011 66.6687C40.842 66.6687 33.3463 59.1933 33.3463 50C33.3463 40.8067 40.82 33.3315 50.011 33.3315C59.2023 33.3315 66.676 40.8067 66.676 50C66.676 59.1933 59.18 66.6687 50.011 66.6687ZM82.6717 23.3125C82.6717 26.6373 79.9943 29.2927 76.6927 29.2927C73.3687 29.2927 70.714 26.615 70.714 23.3125C70.714 20.01 73.391 17.3324 76.6927 17.3324C79.9943 17.3324 82.6717 20.01 82.6717 23.3125ZM99.6487 29.3819C99.2693 21.3712 97.44 14.2754 91.5727 8.4291C85.7277 2.58284 78.6337 0.753097 70.6247 0.351444C62.3703 -0.117148 37.6297 -0.117148 29.3753 0.351444C21.3887 0.730784 14.2945 2.56053 8.42723 8.4068C2.55996 14.253 0.752926 21.3489 0.351366 29.3596C-0.117122 37.6157 -0.117122 62.362 0.351366 70.618C0.73062 78.6287 2.55996 85.7247 8.42723 91.571C14.2945 97.417 21.3664 99.247 29.3753 99.6487C37.6297 100.117 62.3703 100.117 70.6247 99.6487C78.6337 99.2693 85.7277 97.4393 91.5727 91.571C97.4177 85.7247 99.247 78.6287 99.6487 70.618C100.117 62.362 100.117 37.638 99.6487 29.3819ZM88.985 79.4767C87.245 83.8503 83.8763 87.2197 79.4813 88.9823C72.9003 91.5933 57.284 90.9907 50.011 90.9907C42.7383 90.9907 27.0998 91.571 20.541 88.9823C16.1684 87.242 12.7998 83.8727 11.0374 79.4767C8.42723 72.894 9.02957 57.2743 9.02957 50C9.02957 42.7257 8.44953 27.0836 11.0374 20.5233C12.7775 16.1497 16.1461 12.7803 20.541 11.0175C27.1221 8.40677 42.7383 9.00927 50.011 9.00927C57.284 9.00927 72.9223 8.4291 79.4813 11.0175C83.854 12.758 87.2227 16.1274 88.985 20.5233C91.595 27.1059 90.9927 42.7257 90.9927 50C90.9927 57.2743 91.595 72.9163 88.985 79.4767Z" fill="#0B9890"/>
</g>
<defs>
<clipPath id="clip0">
<rect width="100" height="100" fill="white"/>
</clipPath>
</defs>
</svg>
