<svg width="100" height="100" viewBox="0 0 100 100" fill="none" xmlns="http://www.w3.org/2000/svg">
<path d="M50.011 24.3613C35.8227 24.3613 24.3782 35.8084 24.3782 50C24.3782 64.1917 35.8227 75.6387 50.011 75.6387C64.1997 75.6387 75.6444 64.1917 75.6444 50C75.6444 35.8084 64.1997 24.3613 50.011 24.3613ZM50.011 66.6687C40.842 66.6687 33.3464 59.1934 33.3464 50C33.3464 40.8067 40.82 33.3315 50.011 33.3315C59.2024 33.3315 66.6761 40.8067 66.6761 50C66.6761 59.1934 59.1801 66.6687 50.011 66.6687ZM82.6717 23.3125C82.6717 26.6373 79.9944 29.2927 76.6927 29.2927C73.3687 29.2927 70.7141 26.615 70.7141 23.3125C70.7141 20.01 73.3911 17.3324 76.6927 17.3324C79.9944 17.3324 82.6717 20.01 82.6717 23.3125ZM99.6488 29.3819C99.2694 21.3712 97.4401 14.2754 91.5727 8.42911C85.7277 2.58284 78.6337 0.753098 70.6247 0.351444C62.3704 -0.117148 37.6297 -0.117148 29.3754 0.351444C21.3888 0.730784 14.2945 2.56053 8.42724 8.40681C2.55996 14.253 0.752927 21.3489 0.351367 29.3596C-0.117122 37.6157 -0.117122 62.3621 0.351367 70.6181C0.73062 78.6287 2.55996 85.7247 8.42724 91.5711C14.2945 97.4171 21.3665 99.2471 29.3754 99.6488C37.6297 100.117 62.3704 100.117 70.6247 99.6488C78.6337 99.2694 85.7277 97.4394 91.5727 91.5711C97.4177 85.7247 99.2471 78.6287 99.6488 70.6181C100.117 62.3621 100.117 37.638 99.6488 29.3819ZM88.9851 79.4767C87.2451 83.8504 83.8764 87.2197 79.4814 88.9824C72.9004 91.5934 57.284 90.9907 50.011 90.9907C42.7384 90.9907 27.0999 91.5711 20.541 88.9824C16.1684 87.2421 12.7998 83.8727 11.0374 79.4767C8.42724 72.8941 9.02957 57.2744 9.02957 50C9.02957 42.7257 8.44954 27.0836 11.0374 20.5233C12.7775 16.1497 16.1461 12.7803 20.541 11.0175C27.1222 8.40677 42.7384 9.00927 50.011 9.00927C57.284 9.00927 72.9224 8.42911 79.4814 11.0175C83.8541 12.758 87.2227 16.1274 88.9851 20.5233C91.5951 27.1059 90.9927 42.7257 90.9927 50C90.9927 57.2744 91.5951 72.9164 88.9851 79.4767Z" fill="url(#paint0_linear)"/>
<defs>
<linearGradient id="paint0_linear" x1="50" y1="0" x2="50" y2="100" gradientUnits="userSpaceOnUse">
<stop stop-color="#FF0303"/>
<stop offset="1" stop-color="#DE13FF"/>
</linearGradient>
</defs>
</svg>
