<svg width="100" height="75" viewBox="0 0 100 75" fill="none" xmlns="http://www.w3.org/2000/svg">
<path d="M97.9103 11.735C96.7603 7.11582 93.3717 3.47793 89.0693 2.24336C81.2709 0 50 0 50 0C50 0 18.7293 0 10.9307 2.24336C6.62823 3.47814 3.23967 7.11582 2.0896 11.735C0 20.1074 0 37.5759 0 37.5759C0 37.5759 0 55.044 2.0896 63.4167C3.23967 68.0358 6.62823 71.5221 10.9307 72.7566C18.7293 75 50 75 50 75C50 75 81.2706 75 89.0693 72.7566C93.3717 71.5221 96.7603 68.0358 97.9103 63.4167C100 55.044 100 37.5759 100 37.5759C100 37.5759 100 20.1074 97.9103 11.735ZM39.7726 53.4357V21.7158L65.909 37.5762L39.7726 53.4357Z" fill="#FF0000"/>
</svg>
